<?xml version="1.0" standalone="no"?>
<!DOCTYPE svg PUBLIC "-//W3C//DTD SVG 20010904//EN"
 "http://www.w3.org/TR/2001/REC-SVG-20010904/DTD/svg10.dtd">
<svg version="1.0" xmlns="http://www.w3.org/2000/svg"
 width="512.000000pt" height="512.000000pt" viewBox="0 0 512.000000 512.000000"
 preserveAspectRatio="xMidYMid meet">

<g transform="translate(0.000000,512.000000) scale(0.100000,-0.100000)"
fill="#000000" stroke="none">
<path d="M1158 5101 c-68 -27 -120 -72 -154 -133 l-29 -53 -3 -400 -3 -401
-87 -89 c-414 -426 -655 -974 -679 -1547 l-6 -147 -35 -12 c-45 -15 -108 -72
-135 -123 -22 -41 -22 -45 -25 -700 -3 -746 -5 -724 73 -801 72 -73 86 -75
514 -75 l376 0 90 -76 c331 -276 729 -452 1175 -521 160 -24 500 -24 665 0
428 64 816 235 1158 510 l108 87 372 0 c225 0 387 4 409 10 59 17 120 69 151
129 l27 55 0 660 c-1 512 -4 669 -14 697 -22 61 -65 108 -127 137 l-59 27 0
93 c0 190 -41 437 -105 640 -112 353 -298 664 -559 939 l-106 111 0 389 0 390
-31 61 c-32 65 -66 99 -133 135 l-41 22 -1370 2 c-1313 2 -1372 1 -1417 -16z
m2773 -164 c18 -12 39 -34 46 -47 10 -19 13 -148 13 -537 l0 -512 -222 153
c-787 541 -871 596 -899 596 -21 0 -251 -148 -884 -570 l-855 -570 0 706 c0
778 -3 744 63 784 31 20 61 20 1368 20 l1336 0 34 -23z m-493 -911 l552 -379
0 -194 c0 -165 -3 -199 -17 -223 -19 -33 -61 -56 -114 -65 -53 -8 -74 -37 -70
-97 2 -33 38 -58 84 -58 72 0 137 28 193 84 82 82 84 95 84 470 l1 321 51 -55
c110 -117 249 -322 332 -487 138 -276 226 -632 226 -914 l0 -99 -445 0 c-444
0 -444 0 -465 -22 -21 -23 -26 -68 -10 -98 20 -37 58 -40 572 -40 l499 0 24
-25 25 -24 0 -641 0 -642 -29 -29 -29 -29 -824 0 c-642 0 -828 3 -848 13 -45
23 -49 56 -49 444 l-1 362 -26 20 c-35 28 -67 26 -101 -3 l-28 -24 0 -384 c0
-299 3 -392 14 -422 17 -49 73 -111 125 -139 39 -21 56 -22 390 -27 l348 -5
-78 -56 c-733 -520 -1731 -531 -2484 -28 l-125 84 350 5 c193 3 359 9 370 14
55 25 103 68 130 118 l30 53 0 393 0 394 -28 24 c-34 29 -67 31 -98 5 l-24
-19 -5 -387 -5 -387 -28 -24 -28 -24 -830 0 -831 0 -29 29 -29 30 2 646 3 647
24 19 c22 18 46 19 521 19 512 0 550 3 570 40 16 31 11 79 -10 100 -19 19 -33
20 -467 20 l-446 0 6 143 c21 488 206 949 534 1332 l68 80 5 -335 5 -335 27
-51 c48 -91 146 -154 239 -154 51 0 67 8 85 41 29 57 -3 103 -80 118 -50 9
-106 52 -106 80 1 19 1707 1161 1731 1158 8 -1 264 -173 567 -381z"/>
<path d="M1580 4787 c-157 -44 -259 -204 -230 -358 47 -245 336 -347 519 -183
137 123 143 328 16 458 -74 75 -206 111 -305 83z m147 -167 c99 -44 120 -171
42 -250 -62 -61 -156 -60 -217 3 -77 79 -57 198 41 246 52 26 80 26 134 1z"/>
<path d="M2363 3655 c-25 -17 -33 -45 -58 -186 l-16 -96 -57 -23 c-72 -30
-145 -73 -198 -115 l-41 -34 -122 45 c-84 30 -130 42 -147 38 -29 -7 -56 -47
-153 -220 -49 -89 -61 -117 -55 -138 4 -17 41 -56 104 -109 l99 -82 -7 -65
c-4 -36 -7 -85 -7 -110 0 -25 3 -74 7 -110 l7 -65 -99 -82 c-63 -53 -100 -92
-104 -109 -6 -21 6 -49 55 -138 97 -173 124 -213 153 -220 17 -4 63 8 147 38
l122 45 41 -34 c53 -42 126 -85 198 -115 l57 -23 16 -96 c25 -141 33 -169 58
-186 31 -22 362 -22 394 0 26 18 36 50 58 180 l17 101 47 18 c62 25 174 91
215 126 l32 29 126 -46 c165 -59 156 -64 270 132 48 83 88 161 88 174 0 25
-31 59 -147 161 l-63 55 12 78 c8 57 8 100 0 165 l-11 87 62 55 c133 117 150
137 144 168 -3 16 -43 93 -89 173 -109 189 -102 186 -266 125 l-125 -45 -33
29 c-41 35 -153 101 -215 126 l-47 18 -17 101 c-22 130 -32 162 -58 180 -32
22 -363 22 -394 0z m303 -256 c11 -68 25 -121 36 -135 10 -12 46 -32 81 -43
80 -27 174 -82 245 -144 65 -58 70 -58 214 -4 l98 36 40 -69 c22 -38 40 -72
40 -77 0 -5 -38 -40 -84 -78 -47 -38 -90 -80 -95 -93 -8 -17 -7 -46 4 -109 8
-47 15 -102 15 -123 0 -21 -7 -76 -15 -123 -11 -63 -12 -92 -4 -109 5 -13 48
-55 95 -93 46 -38 84 -73 84 -78 0 -5 -18 -39 -40 -77 l-40 -69 -98 36 c-144
54 -149 54 -214 -4 -71 -62 -165 -117 -245 -144 -35 -11 -71 -31 -81 -43 -11
-14 -25 -67 -36 -135 l-19 -111 -86 0 -87 0 -18 106 c-9 59 -22 117 -28 130
-8 17 -36 33 -103 59 -92 36 -175 87 -249 152 -46 42 -59 41 -198 -10 l-97
-36 -40 70 c-23 39 -41 74 -41 77 0 4 41 40 90 81 51 42 93 84 96 97 3 13 0
47 -7 76 -16 68 -16 217 0 291 7 32 10 69 7 82 -3 12 -46 56 -96 96 -49 41
-90 77 -90 81 0 3 18 38 41 77 l40 70 97 -36 c139 -51 152 -52 198 -10 74 65
157 116 249 152 67 26 95 42 103 59 6 13 19 71 28 130 l18 106 87 0 86 0 19
-111z"/>
<path d="M2441 3034 c-242 -65 -403 -307 -363 -546 48 -284 327 -472 597 -403
93 24 164 64 230 130 270 270 143 724 -230 820 -73 19 -163 18 -234 -1z m251
-172 c65 -28 133 -94 165 -161 37 -75 40 -200 6 -273 -30 -66 -96 -133 -162
-165 -48 -24 -68 -28 -141 -28 -73 1 -93 5 -144 30 -65 33 -123 92 -157 163
-18 38 -23 64 -23 132 0 68 5 94 23 132 46 94 130 164 225 189 51 13 158 4
208 -19z"/>
<path d="M696 1979 l-26 -20 0 -475 c0 -291 4 -482 10 -494 12 -22 64 -42 88
-33 19 8 712 425 754 455 16 11 31 30 34 44 15 59 2 69 -400 312 -230 140
-393 232 -408 232 -14 0 -37 -9 -52 -21z m621 -501 c-2 -6 -409 -257 -469
-289 -17 -9 -18 8 -18 290 l0 300 245 -147 c134 -81 243 -150 242 -154z"/>
<path d="M3975 1875 c-16 -15 -25 -36 -25 -55 0 -19 9 -40 25 -55 l24 -25 326
0 326 0 24 25 c16 15 25 36 25 55 0 19 -9 40 -25 55 l-24 25 -326 0 -326 0
-24 -25z"/>
<path d="M3531 1524 c-28 -35 -26 -67 3 -101 l24 -28 509 -3 c279 -2 527 0
551 3 24 4 51 15 62 28 27 29 26 78 -3 105 l-23 22 -551 0 -552 0 -20 -26z"/>
<path d="M3535 1185 c-16 -15 -25 -36 -25 -55 0 -19 9 -40 25 -55 l24 -25 546
0 546 0 24 25 c33 32 33 78 0 110 l-24 25 -546 0 -546 0 -24 -25z"/>
</g>
</svg>
