<?xml version="1.0" standalone="no"?>
<!DOCTYPE svg PUBLIC "-//W3C//DTD SVG 20010904//EN"
 "http://www.w3.org/TR/2001/REC-SVG-20010904/DTD/svg10.dtd">
<svg version="1.0" xmlns="http://www.w3.org/2000/svg"
 width="512.000000pt" height="512.000000pt" viewBox="0 0 512.000000 512.000000"
 preserveAspectRatio="xMidYMid meet">

<g transform="translate(0.000000,512.000000) scale(0.100000,-0.100000)"
fill="#000000" stroke="none">
<path d="M2585 4935 l-25 -24 0 -830 0 -830 -27 26 c-16 14 -53 38 -83 52 -77
36 -192 37 -265 1 -95 -47 -168 -144 -181 -244 l-6 -44 -82 -4 c-71 -4 -92 -9
-147 -39 -70 -39 -128 -104 -149 -169 -11 -33 -17 -39 -50 -44 -67 -10 -173
-72 -232 -134 -93 -97 -138 -211 -138 -352 l0 -75 -58 -25 c-111 -47 -222
-185 -251 -311 -13 -57 -13 -201 0 -258 29 -126 140 -264 251 -311 l58 -25 0
-75 c0 -141 45 -255 138 -352 59 -62 165 -123 231 -134 32 -5 39 -12 59 -58
33 -76 72 -118 144 -156 53 -28 76 -35 144 -38 l82 -4 6 -44 c13 -100 86 -197
181 -244 73 -36 188 -35 265 1 30 14 67 38 83 52 l27 26 28 -26 c15 -14 52
-38 82 -52 77 -36 192 -37 265 -1 95 47 168 144 181 244 l6 43 82 5 c138 9
235 73 286 190 22 50 29 57 61 62 66 11 172 72 231 134 93 97 138 211 138 352
l0 75 58 25 c38 16 79 46 123 90 100 99 139 198 139 350 0 152 -39 251 -139
350 -44 44 -85 74 -123 90 l-58 25 0 75 c0 141 -45 255 -138 352 -58 61 -164
123 -231 135 -33 5 -39 12 -71 77 -39 79 -99 133 -179 159 -42 14 22 16 782
16 l828 1 24 25 25 24 0 911 0 911 -25 24 -24 25 -1151 0 -1151 0 -24 -25z
m2215 -935 l0 -800 -865 0 c-476 0 -865 4 -865 8 0 20 -90 97 -140 121 -44 21
-70 26 -132 26 l-78 0 0 723 0 722 1040 0 1040 0 0 -800z m-2392 -827 c14 -10
35 -32 46 -47 20 -27 21 -41 24 -464 2 -290 0 -449 -8 -474 -13 -45 -68 -95
-115 -104 -85 -16 -166 33 -187 112 l-12 44 -79 0 -79 0 7 -47 c15 -101 73
-183 163 -231 95 -51 188 -52 300 -6 9 5 12 -39 12 -196 0 -157 -3 -201 -12
-196 -7 2 -37 12 -67 22 -176 54 -368 -72 -396 -259 l-7 -47 79 0 79 0 12 44
c21 79 102 128 187 112 47 -9 102 -59 115 -104 8 -25 10 -184 8 -474 -3 -423
-4 -437 -24 -464 -39 -53 -71 -69 -134 -69 -44 0 -66 5 -86 21 -41 30 -64 65
-70 105 -6 36 -5 37 48 61 97 45 167 138 184 245 l7 43 -81 0 -80 0 -6 -35
c-8 -43 -50 -94 -93 -111 -39 -17 -238 -19 -280 -3 -32 12 -83 57 -83 74 0 7
18 20 41 30 85 39 159 140 175 243 l7 42 -81 0 -80 0 -6 -35 c-9 -46 -58 -101
-103 -116 -53 -17 -136 -4 -205 33 -107 57 -158 143 -166 279 l-5 86 55 25
c97 45 167 138 184 246 l7 42 -81 0 -80 0 -6 -36 c-9 -46 -73 -111 -119 -119
-87 -17 -183 44 -237 149 -33 65 -35 75 -35 166 0 91 2 101 35 166 54 105 150
166 237 149 46 -8 110 -73 119 -119 l6 -36 80 0 81 0 -7 43 c-17 107 -87 200
-184 245 l-55 25 5 86 c11 189 131 313 305 315 65 1 74 -2 110 -30 26 -21 43
-45 53 -77 l15 -47 79 0 78 0 -7 47 c-14 98 -89 199 -174 238 -23 10 -41 24
-41 30 0 22 68 74 104 80 19 4 83 5 144 3 106 -3 112 -4 149 -34 26 -21 43
-45 53 -77 l15 -47 79 0 79 0 -7 42 c-17 107 -79 194 -172 239 -68 34 -73 43
-53 96 14 37 47 72 84 89 40 19 119 12 153 -13z m480 0 c39 -29 62 -64 68
-104 6 -36 5 -37 -48 -61 -96 -44 -171 -143 -185 -243 l-6 -45 80 0 81 0 6 32
c8 43 48 92 89 112 41 19 238 23 284 5 32 -12 83 -57 83 -74 0 -7 -18 -20 -41
-30 -85 -39 -162 -145 -176 -240 l-6 -45 80 0 81 0 6 32 c9 44 48 92 92 113
29 13 51 16 95 11 111 -11 196 -68 249 -167 28 -52 33 -75 38 -149 l5 -87 -55
-25 c-96 -44 -171 -143 -185 -243 l-6 -45 81 0 80 0 6 36 c9 46 73 111 119
119 87 17 183 -44 237 -149 33 -65 35 -75 35 -165 0 -89 -3 -102 -33 -163 -19
-39 -49 -80 -70 -98 -48 -39 -123 -64 -168 -55 -47 8 -111 73 -120 119 l-6 36
-80 0 -80 0 7 -47 c15 -103 87 -197 183 -241 l55 -25 -5 -86 c-8 -135 -60
-223 -166 -279 -74 -40 -160 -51 -213 -29 -43 17 -86 71 -95 115 l-6 32 -80 0
-80 0 7 -47 c14 -98 89 -199 174 -238 23 -10 41 -23 41 -30 0 -17 -51 -62 -83
-74 -42 -16 -241 -14 -281 3 -40 17 -83 71 -92 114 l-6 32 -80 0 -80 0 7 -47
c15 -103 87 -197 183 -241 53 -24 54 -25 48 -61 -6 -40 -29 -75 -70 -105 -20
-16 -42 -21 -86 -21 -63 0 -95 16 -134 69 -20 27 -21 41 -24 464 -2 290 0 449
8 474 13 45 68 95 115 104 85 16 166 -33 187 -112 l12 -44 79 0 79 0 -7 48
c-9 62 -60 156 -104 193 -102 84 -225 99 -358 43 -10 -5 -13 39 -13 196 0 157
3 201 13 196 6 -2 36 -12 66 -22 96 -29 212 -2 298 70 39 33 90 129 98 189 l7
47 -79 0 -79 0 -12 -44 c-37 -141 -242 -154 -298 -19 -18 41 -20 875 -3 920
14 37 47 72 84 89 40 19 119 12 153 -13z"/>
<path d="M4245 4520 l-121 -120 -273 0 c-151 0 -280 -4 -290 -9 -10 -6 -50
-60 -91 -120 l-73 -111 -115 0 -115 0 -131 -130 -131 -130 57 -57 58 -58 108
108 107 107 113 0 c62 0 121 4 131 9 10 6 50 60 91 120 l73 111 275 0 275 0
122 120 121 120 102 0 102 0 0 80 0 80 -137 0 -136 0 -122 -120z"/>
<path d="M4480 3840 l0 -480 80 0 80 0 0 480 0 480 -80 0 -80 0 0 -480z"/>
<path d="M4080 3760 l0 -400 80 0 80 0 0 400 0 400 -80 0 -80 0 0 -400z"/>
<path d="M3680 3680 l0 -320 80 0 80 0 0 320 0 320 -80 0 -80 0 0 -320z"/>
<path d="M3280 3600 l0 -240 80 0 80 0 0 240 0 240 -80 0 -80 0 0 -240z"/>
<path d="M2880 3520 l0 -160 80 0 80 0 0 160 0 160 -80 0 -80 0 0 -160z"/>
<path d="M1440 4787 c-38 -12 -116 -86 -141 -132 l-15 -30 -324 -64 c-249 -50
-325 -62 -328 -51 -3 7 -13 21 -23 31 -16 16 -35 19 -130 19 -62 0 -130 -5
-153 -12 -55 -16 -138 -99 -154 -154 -16 -55 -16 -412 0 -466 14 -48 76 -121
118 -138 l30 -12 0 -265 0 -264 25 -24 c23 -24 31 -25 136 -25 144 0 181 11
244 75 69 68 75 94 75 325 0 178 1 192 18 188 9 -3 118 -24 241 -49 222 -43
225 -44 240 -74 9 -16 36 -50 61 -75 94 -94 230 -93 327 2 73 71 73 74 73 568
0 494 0 497 -73 568 -67 65 -158 87 -247 59z m135 -172 l25 -24 0 -431 0 -431
-25 -24 c-15 -16 -36 -25 -55 -25 -19 0 -40 9 -55 25 l-25 24 0 431 0 431 25
24 c15 16 36 25 55 25 19 0 40 -9 55 -25z m-295 -456 l0 -301 -22 4 c-13 3
-157 32 -320 64 l-298 59 0 175 0 176 303 60 c166 34 310 62 320 63 16 1 17
-19 17 -300z m-800 1 l0 -240 -55 0 c-46 0 -60 4 -80 25 -25 24 -25 26 -25
215 0 189 0 191 25 215 20 21 34 25 80 25 l55 0 0 -240z m160 -545 c0 -205 0
-206 -25 -230 -20 -21 -34 -25 -80 -25 l-55 0 0 200 0 200 55 0 c42 0 60 5 75
20 11 11 20 25 20 30 0 6 2 10 5 10 3 0 5 -92 5 -205z"/>
<path d="M2112 4625 c-127 -85 -232 -158 -232 -161 0 -3 18 -32 41 -65 25 -37
46 -58 54 -55 21 8 465 306 465 312 0 10 -81 124 -88 124 -4 0 -112 -70 -240
-155z"/>
<path d="M1920 4160 l0 -80 240 0 240 0 0 80 0 80 -240 0 -240 0 0 -80z"/>
<path d="M1921 3921 c-23 -33 -41 -62 -41 -65 0 -6 444 -304 465 -312 8 -3 29
18 54 55 23 33 41 62 41 65 0 6 -444 304 -465 312 -8 3 -29 -18 -54 -55z"/>
</g>
</svg>
