<?xml version="1.0" standalone="no"?>
<!DOCTYPE svg PUBLIC "-//W3C//DTD SVG 20010904//EN"
 "http://www.w3.org/TR/2001/REC-SVG-20010904/DTD/svg10.dtd">
<svg version="1.0" xmlns="http://www.w3.org/2000/svg"
 width="512.000000pt" height="512.000000pt" viewBox="0 0 512.000000 512.000000"
 preserveAspectRatio="xMidYMid meet">

<g transform="translate(0.000000,512.000000) scale(0.100000,-0.100000)"
fill="#000000" stroke="none">
<path d="M2626 5029 c-62 -15 -153 -68 -197 -116 -22 -24 -55 -74 -72 -111
l-32 -67 -3 -247 -4 -247 -601 -3 -602 -3 -50 -25 c-64 -31 -124 -91 -155
-155 l-25 -50 -3 -865 -3 -865 -199 -201 c-217 -218 -225 -230 -180 -287 l21
-26 -45 -56 c-131 -160 -83 -386 102 -477 38 -18 63 -23 127 -23 74 1 100 7
167 43 4 2 8 -207 10 -465 3 -463 3 -469 26 -513 35 -72 75 -114 144 -151 l63
-34 1045 0 1045 0 63 34 c70 38 101 70 140 145 24 48 26 62 30 208 l4 157 69
-34 c38 -19 78 -35 89 -35 12 0 125 52 252 116 212 107 237 122 298 184 162
161 214 404 126 585 -115 233 -411 305 -626 151 l-50 -36 -58 39 c-31 21 -67
42 -80 46 l-22 6 2 326 3 326 287 167 287 168 199 4 198 3 76 37 c91 45 147
103 191 196 l32 67 0 896 0 895 -37 76 c-45 91 -103 147 -196 191 l-67 32
-875 2 c-508 1 -891 -3 -914 -8z m1768 -161 c55 -16 138 -99 154 -154 17 -59
17 -1689 0 -1748 -16 -55 -99 -138 -154 -154 -26 -7 -111 -12 -228 -12 l-187
0 -369 -215 c-203 -118 -376 -218 -384 -221 -10 -4 12 56 59 167 41 95 75 183
75 196 0 13 -11 35 -25 48 l-24 25 -312 0 c-215 0 -324 4 -353 12 -55 16 -138
99 -154 154 -17 59 -17 1689 0 1748 15 51 99 137 148 153 52 16 1698 17 1754
1z m-2614 -926 c36 -75 75 -147 87 -159 22 -22 27 -23 237 -23 l215 0 3 -407
3 -408 32 -67 c44 -93 100 -151 191 -196 l76 -37 267 -5 266 -5 -98 -230 c-55
-126 -99 -240 -99 -253 0 -31 43 -72 75 -72 15 0 73 27 129 60 57 33 106 60
109 60 4 0 7 -117 7 -260 l0 -259 -37 -6 c-121 -20 -239 -97 -299 -195 -146
-241 -27 -582 254 -729 l83 -43 -3 -183 c-3 -201 -6 -210 -72 -259 -27 -21
-33 -21 -1046 -21 -1013 0 -1019 0 -1046 21 -15 11 -37 33 -48 48 -20 27 -21
41 -24 497 -2 396 0 469 11 469 8 0 27 10 41 21 l28 22 222 -222 c202 -201
225 -221 256 -221 31 0 49 15 177 143 128 128 143 146 143 177 0 31 -20 54
-222 257 -135 135 -218 226 -213 231 6 5 147 66 315 136 l305 127 44 -16 c195
-69 381 117 316 316 -16 51 -46 83 -479 517 -502 504 -512 512 -615 512 -174
-1 -292 -166 -236 -331 l15 -45 -54 -129 -55 -130 -1 652 c0 438 3 661 11 680
6 15 20 39 32 52 44 47 64 50 357 50 l275 0 65 -137z m540 58 l0 -80 -175 0
-175 0 -40 80 -40 80 215 0 215 0 0 -80z m-458 -1338 c420 -419 458 -460 458
-490 0 -46 -46 -92 -92 -92 -30 0 -71 38 -490 458 -420 419 -458 460 -458 490
0 46 46 92 92 92 30 0 71 -38 490 -458z m100 -594 c-9 -9 -485 -208 -498 -208
-11 0 -404 392 -404 403 0 9 185 459 202 491 9 16 53 -25 359 -330 192 -192
345 -352 341 -356z m-817 -128 l180 -180 -143 -142 -142 -143 -182 182 -183
183 140 140 c77 77 142 140 145 140 3 0 86 -81 185 -180z m-400 -400 l99 -100
-29 -30 c-60 -62 -155 -64 -211 -4 -56 59 -57 137 -2 199 16 19 33 35 37 35 3
0 51 -45 106 -100z m800 -160 l180 -180 -63 -62 -62 -63 -182 182 -183 183 60
60 c33 33 62 60 65 60 3 0 86 -81 185 -180z m1865 115 c19 -10 61 -43 93 -74
50 -48 64 -56 97 -56 33 0 47 8 97 56 84 80 113 94 203 94 83 0 121 -15 178
-69 119 -111 105 -313 -30 -462 -44 -47 -76 -67 -249 -154 l-199 -101 -199
101 c-173 87 -205 107 -249 154 -176 193 -137 457 78 527 39 13 142 4 180 -16z"/>
<path d="M3682 4627 c-44 -14 -116 -78 -137 -123 -10 -21 -21 -71 -26 -112
-10 -93 -40 -145 -116 -207 -40 -33 -61 -44 -72 -38 -9 4 -139 9 -289 11
l-272 3 -25 -25 -25 -25 0 -431 0 -431 25 -24 24 -25 271 0 271 0 24 25 c14
13 25 31 25 39 0 12 11 10 54 -10 102 -47 179 -56 436 -52 233 3 235 3 286 30
76 40 107 70 145 140 l34 63 0 205 0 205 -34 63 c-56 104 -142 159 -261 169
l-67 6 19 76 c26 108 34 249 18 306 -18 64 -87 139 -147 159 -52 18 -112 19
-161 3z m133 -172 c20 -19 25 -34 25 -73 0 -71 -25 -205 -55 -291 -30 -89 -31
-111 -6 -142 18 -22 28 -24 149 -29 141 -5 160 -12 206 -74 19 -25 21 -41 21
-206 0 -196 -2 -205 -69 -254 -26 -20 -41 -21 -274 -21 -233 0 -250 1 -303 23
-31 12 -77 36 -103 53 l-46 31 0 237 0 238 86 68 c105 83 146 125 179 180 29
50 55 143 55 198 0 48 35 87 80 87 19 0 40 -9 55 -25z m-615 -775 l0 -320
-160 0 -160 0 0 320 0 320 160 0 160 0 0 -320z"/>
</g>
</svg>
