<?xml version="1.0" standalone="no"?>
<!DOCTYPE svg PUBLIC "-//W3C//DTD SVG 20010904//EN"
 "http://www.w3.org/TR/2001/REC-SVG-20010904/DTD/svg10.dtd">
<svg version="1.0" xmlns="http://www.w3.org/2000/svg"
 width="512.000000pt" height="512.000000pt" viewBox="0 0 512.000000 512.000000"
 preserveAspectRatio="xMidYMid meet">

<g transform="translate(0.000000,512.000000) scale(0.100000,-0.100000)"
fill="#000000" stroke="none">
<path d="M2513 4996 c-27 -24 -28 -27 -31 -139 l-4 -115 -76 -7 c-534 -45
-1009 -263 -1382 -635 -370 -368 -590 -849 -635 -1382 l-7 -78 -103 0 c-118 0
-148 -10 -166 -53 -10 -24 -10 -34 2 -56 23 -41 55 -51 166 -51 l101 0 7 -77
c10 -126 44 -316 76 -431 244 -869 995 -1496 1896 -1583 l123 -12 0 -109 c0
-108 0 -110 29 -139 36 -35 61 -37 98 -5 27 24 28 27 31 139 l4 115 86 7
c1060 85 1901 912 2003 1968 l12 127 109 0 c108 0 110 0 139 29 35 36 37 61 5
98 -24 27 -27 28 -139 31 l-115 4 -7 86 c-75 938 -733 1716 -1648 1948 -104
26 -240 48 -369 59 l-78 7 0 110 c0 108 0 110 -29 139 -36 35 -61 37 -98 5z
m-33 -505 l0 -88 -87 -6 c-183 -12 -432 -79 -623 -169 -375 -176 -698 -498
-876 -873 -89 -187 -159 -445 -171 -627 l-6 -88 -88 0 -89 0 0 58 c0 69 32
268 59 373 151 571 545 1051 1077 1310 229 112 532 193 737 198 l67 1 0 -89z
m465 59 c296 -57 599 -194 847 -381 106 -80 297 -271 377 -377 228 -302 377
-675 406 -1013 3 -41 8 -89 11 -106 l5 -33 -90 0 -90 0 -5 33 c-2 17 -10 76
-16 130 -41 346 -201 699 -445 979 -300 345 -776 585 -1217 615 l-88 6 0 90 0
90 98 -6 c53 -3 147 -16 207 -27z m-463 -416 c3 -108 5 -117 27 -135 35 -28
85 -25 110 7 18 23 21 41 21 137 l0 110 78 -7 c577 -51 1110 -419 1362 -941
91 -188 151 -398 166 -582 l7 -81 -118 -4 c-109 -3 -118 -5 -136 -27 -28 -35
-25 -85 7 -110 23 -18 41 -21 137 -21 l110 0 -7 -80 c-16 -198 -74 -398 -172
-595 -258 -521 -785 -884 -1353 -931 l-79 -7 -4 118 c-3 109 -5 118 -27 136
-35 28 -85 25 -110 -7 -18 -23 -21 -41 -21 -137 l0 -110 -80 7 c-256 21 -550
125 -772 273 -426 284 -710 757 -754 1255 l-7 76 118 4 c109 3 118 5 136 27
28 35 25 85 -7 110 -23 18 -41 21 -137 21 l-109 0 7 78 c48 549 381 1054 872
1325 204 113 502 202 690 206 l41 1 4 -116z m-1759 -1741 c30 -442 270 -919
615 -1218 278 -242 636 -405 977 -445 55 -6 115 -14 133 -16 l32 -5 0 -89 0
-89 -57 5 c-650 56 -1199 378 -1558 914 -172 258 -304 640 -322 933 l-6 97 90
0 90 0 6 -87z m3863 45 c-3 -24 -8 -70 -11 -103 -36 -363 -207 -770 -443
-1055 -343 -414 -857 -693 -1353 -735 -41 -3 -89 -8 -106 -11 l-33 -5 0 90 0
90 33 5 c17 3 64 8 102 11 39 4 121 18 184 31 632 140 1148 603 1351 1213 42
124 75 275 85 381 3 36 8 80 11 98 l5 32 90 0 90 0 -5 -42z"/>
<path d="M2475 3559 c-439 -31 -816 -369 -901 -809 -19 -96 -19 -284 0 -380
98 -508 577 -866 1083 -811 242 26 446 123 614 290 258 259 355 627 258 983
-47 173 -180 381 -318 495 -211 175 -455 251 -736 232z m253 -165 c300 -61
544 -278 642 -572 29 -84 33 -114 37 -227 9 -258 -68 -457 -246 -636 -166
-165 -364 -248 -593 -249 -329 0 -613 171 -763 460 -71 139 -90 219 -89 390 0
166 12 225 75 360 113 240 336 418 594 473 93 20 248 21 343 1z"/>
<path d="M2487 3130 c-212 -54 -308 -315 -180 -488 14 -18 23 -35 22 -36 -2
-2 -25 -17 -50 -34 -96 -65 -173 -182 -198 -300 -16 -78 -14 -116 10 -146 l20
-26 448 0 448 0 21 23 c38 40 23 167 -32 276 -30 59 -114 152 -164 182 -20 12
-39 24 -41 25 -1 2 9 18 23 37 55 72 72 195 40 290 -21 62 -92 140 -157 171
-59 29 -152 40 -210 26z m165 -175 c89 -66 88 -201 -2 -262 -44 -31 -129 -32
-176 -3 -69 44 -93 156 -46 219 38 52 82 73 142 69 35 -2 66 -11 82 -23z m52
-479 c68 -33 148 -119 169 -181 l16 -45 -329 0 -330 0 10 25 c31 82 96 161
161 196 88 47 212 49 303 5z"/>
</g>
</svg>
