<?xml version="1.0" standalone="no"?>
<!DOCTYPE svg PUBLIC "-//W3C//DTD SVG 20010904//EN"
 "http://www.w3.org/TR/2001/REC-SVG-20010904/DTD/svg10.dtd">
<svg version="1.0" xmlns="http://www.w3.org/2000/svg"
 width="512.000000pt" height="512.000000pt" viewBox="0 0 512.000000 512.000000"
 preserveAspectRatio="xMidYMid meet">

<g transform="translate(0.000000,512.000000) scale(0.100000,-0.100000)"
fill="#000000" stroke="none">
<path d="M320 4947 c-49 -16 -133 -102 -148 -153 -18 -60 -18 -4408 0 -4468
16 -55 99 -138 154 -154 60 -17 2328 -17 2388 0 55 16 138 99 154 154 7 24 12
100 12 178 l0 136 936 0 c706 0 947 3 978 12 55 16 138 99 154 154 17 60 17
3128 0 3188 -16 55 -99 138 -154 154 -31 9 -272 12 -978 12 l-936 0 0 296 c0
204 -4 310 -12 338 -16 55 -99 138 -154 154 -56 16 -2341 16 -2394 -1z m291
-284 c24 -97 41 -145 56 -160 l22 -23 831 0 831 0 22 23 c15 15 32 63 56 160
l33 137 104 0 c98 0 107 -2 129 -25 l25 -24 0 -296 0 -295 -936 0 c-706 0
-947 -3 -978 -12 -55 -16 -138 -99 -154 -154 -17 -60 -17 -3128 0 -3188 16
-55 99 -138 154 -154 31 -9 272 -12 978 -12 l936 0 0 -135 c0 -131 -1 -137
-25 -160 l-24 -25 -1151 0 -1151 0 -24 25 -25 24 0 2191 0 2191 25 24 c22 23
31 25 129 25 l104 0 33 -137z m509 -903 l0 -80 -80 0 -80 0 0 80 0 80 80 0 80
0 0 -80z m320 0 l0 -80 -80 0 -80 0 0 80 0 80 80 0 80 0 0 -80z m320 0 l0 -80
-80 0 -80 0 0 80 0 80 80 0 80 0 0 -80z m2880 0 l0 -80 -80 0 -80 0 0 80 0 80
80 0 80 0 0 -80z m160 -1655 l0 -1256 -25 -24 -24 -25 -1951 0 -1951 0 -24 25
-25 24 0 1256 0 1255 2000 0 2000 0 0 -1255z"/>
<path d="M1120 2185 l0 -1016 25 -24 24 -25 1656 0 1655 0 0 80 0 80 -640 0
-640 0 0 855 0 856 -25 24 c-24 25 -26 25 -215 25 -189 0 -191 0 -215 -25
l-25 -24 0 -856 0 -855 -80 0 -80 0 0 615 0 616 -25 24 c-24 25 -26 25 -215
25 -189 0 -191 0 -215 -25 l-25 -24 0 -616 0 -615 -80 0 -80 0 0 455 0 456
-25 24 c-24 25 -26 25 -215 25 -189 0 -191 0 -215 -25 l-25 -24 0 -456 0 -455
-80 0 -80 0 0 960 0 960 -80 0 -80 0 0 -1015z"/>
<path d="M3385 3175 c-25 -24 -25 -26 -25 -215 0 -257 -17 -240 240 -240 189
0 191 0 215 25 25 24 25 26 25 215 0 257 17 240 -240 240 -189 0 -191 0 -215
-25z"/>
<path d="M4000 3120 l0 -80 80 0 80 0 0 80 0 80 -80 0 -80 0 0 -80z"/>
<path d="M4320 3120 l0 -80 80 0 80 0 0 80 0 80 -80 0 -80 0 0 -80z"/>
<path d="M4000 2800 l0 -80 240 0 240 0 0 80 0 80 -240 0 -240 0 0 -80z"/>
<path d="M3385 2535 c-25 -24 -25 -26 -25 -215 0 -257 -17 -240 240 -240 257
0 240 -17 240 240 0 257 17 240 -240 240 -189 0 -191 0 -215 -25z"/>
<path d="M4000 2480 l0 -80 240 0 240 0 0 80 0 80 -240 0 -240 0 0 -80z"/>
<path d="M4000 2160 l0 -80 240 0 240 0 0 80 0 80 -240 0 -240 0 0 -80z"/>
<path d="M3385 1895 c-25 -24 -25 -26 -25 -215 0 -257 -17 -240 240 -240 257
0 240 -17 240 240 0 257 17 240 -240 240 -189 0 -191 0 -215 -25z"/>
<path d="M4000 1840 l0 -80 240 0 240 0 0 80 0 80 -240 0 -240 0 0 -80z"/>
<path d="M4000 1520 l0 -80 80 0 80 0 0 80 0 80 -80 0 -80 0 0 -80z"/>
<path d="M4320 1520 l0 -80 80 0 80 0 0 80 0 80 -80 0 -80 0 0 -80z"/>
</g>
</svg>
