<?xml version="1.0" standalone="no"?>
<!DOCTYPE svg PUBLIC "-//W3C//DTD SVG 20010904//EN"
 "http://www.w3.org/TR/2001/REC-SVG-20010904/DTD/svg10.dtd">
<svg version="1.0" xmlns="http://www.w3.org/2000/svg"
 width="512.000000pt" height="512.000000pt" viewBox="0 0 512.000000 512.000000"
 preserveAspectRatio="xMidYMid meet">

<g transform="translate(0.000000,512.000000) scale(0.100000,-0.100000)"
fill="#000000" stroke="none">
<path d="M4720 5114 c-333 -37 -710 -135 -767 -200 -38 -42 -25 -93 28 -112
19 -7 60 3 184 44 88 29 171 53 185 54 20 0 82 -57 289 -264 l264 -264 -7 -42
c-12 -78 -77 -264 -131 -376 -162 -336 -425 -611 -860 -899 -147 -97 -456
-285 -470 -285 -5 0 -158 148 -340 330 l-329 329 16 34 c20 42 182 303 261
422 219 327 458 599 632 720 39 27 76 55 83 64 18 22 15 55 -9 85 -31 39 -73
35 -145 -16 -83 -59 -212 -168 -268 -228 l-47 -50 -107 35 c-721 239 -1497 50
-2047 -500 -321 -320 -536 -747 -596 -1185 -21 -153 -16 -421 10 -575 38 -215
116 -445 212 -622 21 -40 39 -77 39 -83 0 -6 -22 -43 -48 -83 -263 -391 -752
-1258 -752 -1332 0 -60 55 -115 115 -115 61 0 1022 531 1057 584 4 6 8 25 8
43 0 34 -37 73 -69 73 -10 0 -60 -25 -112 -56 -244 -145 -597 -342 -748 -419
l-54 -27 68 129 c516 977 1044 1708 1460 2021 255 191 454 268 680 260 187 -6
200 -22 200 -238 -1 -136 -3 -150 -33 -237 -131 -381 -466 -742 -1087 -1173
-66 -45 -128 -92 -138 -102 -23 -27 -22 -59 4 -92 27 -35 63 -34 122 4 26 17
52 30 58 30 5 0 42 -18 82 -39 323 -176 738 -264 1092 -232 488 45 935 253
1284 599 318 317 513 693 587 1137 23 138 23 432 0 579 -19 120 -51 251 -91
367 l-25 76 83 84 c352 353 570 925 572 1499 0 238 -4 243 -220 246 -77 1
-156 0 -175 -2z m250 -223 c0 -79 -15 -260 -26 -315 -6 -28 -12 -23 -200 165
-106 106 -191 196 -188 199 10 10 198 28 307 29 l107 1 0 -79z m-2340 -487
c64 -58 134 -198 189 -375 l19 -58 -177 2 c-163 2 -180 0 -233 -21 -31 -13
-83 -43 -114 -67 -32 -25 -59 -43 -61 -42 -7 8 50 207 88 302 45 117 95 204
147 258 49 50 87 50 142 1z m-369 -61 c-48 -96 -101 -248 -141 -407 l-39 -151
-33 3 c-99 8 -310 39 -396 58 l-23 5 33 47 c141 208 342 384 536 468 42 19 80
34 85 34 4 0 -6 -26 -22 -57z m640 31 c35 -14 99 -47 141 -72 l78 -46 -16 -25
c-9 -13 -42 -60 -74 -103 l-57 -78 -33 93 c-18 50 -49 126 -69 167 -45 94 -43
90 -39 90 3 0 33 -12 69 -26z m-1194 -184 c-46 -50 -113 -131 -148 -181 -35
-50 -69 -98 -75 -106 -10 -15 -17 -15 -76 0 -36 9 -78 21 -93 27 l-28 11 24
25 c28 30 183 148 249 189 43 27 221 124 228 125 2 0 -34 -41 -81 -90z m1055
-370 c35 0 48 -4 46 -12 -7 -29 -152 -258 -162 -258 -13 0 -290 110 -320 127
-16 9 -12 15 31 50 109 91 149 105 267 98 49 -3 111 -5 138 -5z m-1468 -41
c54 -16 100 -29 101 -29 2 0 -17 -46 -42 -102 -103 -234 -181 -532 -203 -783
-6 -66 -13 -144 -16 -172 l-5 -53 -226 0 -226 0 7 78 c33 380 183 748 421
1035 42 50 61 67 73 62 10 -3 61 -20 116 -36z m399 -93 c73 -13 183 -30 245
-37 92 -10 112 -15 112 -29 0 -9 -7 -63 -15 -121 -25 -182 -45 -409 -51 -579
-3 -91 -7 -184 -10 -208 -9 -70 -22 -72 -385 -72 l-308 0 5 68 c23 312 72 546
163 779 41 104 97 223 106 223 3 0 65 -11 138 -24z m695 -198 c138 -56 181
-77 177 -88 -3 -8 -35 -59 -70 -115 -116 -182 -119 -173 143 -437 l206 -208
-65 0 c-60 0 -68 3 -95 31 -61 64 -147 89 -308 89 -92 0 -177 -10 -228 -26
-16 -5 -18 4 -18 94 0 169 53 731 69 732 3 1 88 -32 189 -72z m605 -496 l309
-309 -81 -51 c-45 -29 -85 -52 -89 -52 -9 0 -552 543 -552 552 0 6 100 168
104 168 0 0 140 -139 309 -308z m1361 141 c39 -123 70 -276 81 -411 l8 -82
-226 0 -225 0 -6 48 c-3 26 -8 88 -12 138 l-6 91 114 80 c62 44 142 103 178
131 36 28 68 51 72 51 3 1 13 -20 22 -46z m-530 -455 c6 -133 2 -168 -27 -224
-25 -48 -109 -146 -117 -137 -13 15 -132 322 -128 332 4 12 237 159 254 160 7
1 13 -45 18 -131z m-2690 -240 c3 -29 8 -89 11 -133 3 -44 13 -124 21 -178
l16 -98 -26 -32 c-14 -18 -74 -95 -132 -172 -59 -77 -111 -144 -115 -149 -10
-11 -67 103 -112 224 -60 160 -99 337 -113 504 l-7 86 226 0 226 0 5 -52z
m516 49 c0 -2 -37 -35 -82 -73 -46 -38 -122 -106 -170 -152 -86 -83 -86 -83
-92 -55 -9 41 -25 267 -19 275 4 8 363 12 363 5z m1344 -5 c15 -25 -25 -600
-61 -859 l-17 -122 -273 2 c-150 1 -273 4 -273 6 0 1 28 37 62 80 163 201 271
413 313 614 8 38 15 118 15 178 l0 109 114 0 c63 0 117 -3 120 -8z m506 -124
c78 -193 86 -207 127 -225 54 -22 94 -10 142 42 23 25 43 45 45 45 2 0 -3 -39
-10 -87 -33 -208 -107 -457 -190 -632 l-44 -94 -32 7 c-97 19 -266 46 -360 57
-125 15 -116 0 -93 155 25 169 45 401 52 589 6 177 12 215 36 215 7 0 32 14
57 30 41 27 52 30 131 30 l85 0 54 -132z m936 45 c-27 -340 -162 -695 -371
-972 -96 -127 -107 -137 -142 -123 -16 6 -67 23 -115 37 l-87 26 34 72 c80
177 136 355 179 567 22 111 32 185 52 418 l6 62 225 0 226 0 -7 -87z m-1557
-1058 c8 -9 -22 -134 -61 -255 -81 -251 -180 -410 -256 -410 -74 0 -173 144
-241 348 -33 98 -81 280 -81 306 0 12 18 16 98 19 108 5 534 -2 541 -8z m371
-35 c74 -11 159 -25 188 -31 l52 -10 -42 -61 c-150 -214 -349 -382 -547 -462
-35 -14 -65 -25 -67 -23 -1 1 15 38 37 82 46 95 107 280 140 422 l24 103 40 0
c22 0 101 -9 175 -20z m-1130 -127 c21 -99 89 -294 129 -378 22 -44 38 -81 37
-83 -9 -8 -178 74 -248 122 -82 54 -208 161 -208 175 0 4 21 23 48 43 26 20
85 68 132 107 47 39 88 71 91 71 3 0 12 -26 19 -57z m1628 24 c41 -12 74 -26
75 -32 2 -14 -119 -113 -216 -178 -82 -54 -247 -147 -262 -147 -4 0 23 33 61
73 75 78 139 159 199 250 21 32 45 57 54 56 9 0 49 -10 89 -22z m-1958 -364
c0 -2 -28 11 -62 28 -58 29 -61 32 -43 45 17 13 23 10 62 -28 24 -23 43 -44
43 -45z"/>
<path d="M3810 4274 c-149 -40 -262 -164 -290 -316 -29 -155 65 -330 215 -404
55 -26 69 -29 165 -29 99 0 109 2 172 33 77 38 134 97 175 181 25 51 28 66 28
166 0 106 -1 112 -34 173 -56 103 -155 177 -269 201 -67 14 -94 13 -162 -5z
m140 -145 c66 -15 116 -52 150 -112 65 -114 27 -256 -87 -319 -202 -113 -429
112 -316 313 44 78 93 109 203 128 3 0 25 -4 50 -10z"/>
</g>
</svg>
